<svg width="215" height="47" viewBox="0 0 215 47" fill="none" xmlns="http://www.w3.org/2000/svg">
<path d="M20.905 6.96297C13.0664 6.96297 6.68958 13.6004 6.68958 21.7593C6.68958 27.9493 10.3613 33.4327 15.8878 35.5982V43.5185C15.8878 43.9998 16.2616 44.3889 16.724 44.3889H17.5602V46.1296C17.5602 46.6109 17.934 47 18.3964 47H23.4136C23.876 47 24.2498 46.6109 24.2498 46.1296V44.3889H25.086C25.5484 44.3889 25.9222 43.9998 25.9222 43.5185V35.5982C31.4486 33.4327 35.1204 27.9493 35.1204 21.7593C35.1204 13.6004 28.7435 6.96297 20.905 6.96297ZM23.4136 42.6481C22.9511 42.6481 22.5774 43.0372 22.5774 43.5185V45.2593H19.2326V43.5185C19.2326 43.0372 18.8588 42.6481 18.3964 42.6481H17.5602V38.2963H24.2498V42.6481H23.4136ZM24.8251 34.1551C24.4814 34.2726 24.2498 34.6068 24.2498 34.9819V36.5556H17.5602V34.9819C17.5602 34.6059 17.3285 34.2726 16.9849 34.1551C11.828 32.39 8.36197 27.408 8.36197 21.7593C8.36197 14.5604 13.9888 8.70371 20.905 8.70371C27.8212 8.70371 33.448 14.5604 33.448 21.7593C33.448 27.408 29.9819 32.39 24.8251 34.1551Z" fill="#2B2827"/>
<path d="M21.241 4.35185C21.241 4.57608 21.0724 4.72222 20.9048 4.72222C20.7372 4.72222 20.5686 4.57608 20.5686 4.35185V0.87037C20.5686 0.646143 20.7372 0.5 20.9048 0.5C21.0724 0.5 21.241 0.646142 21.241 0.87037V4.35185Z" fill="#2B2827" stroke="#32322C"/>
<path d="M37.6289 21.3889H40.9737C41.1413 21.3889 41.3099 21.5351 41.3099 21.7593C41.3099 21.9835 41.1413 22.1297 40.9737 22.1297H37.6289C37.4613 22.1297 37.2927 21.9835 37.2927 21.7593C37.2927 21.5351 37.4613 21.3889 37.6289 21.3889Z" fill="#2B2827" stroke="#32322C"/>
<path d="M0.8362 21.3889H4.181C4.34857 21.3889 4.5172 21.5351 4.5172 21.7593C4.5172 21.9835 4.34857 22.1297 4.181 22.1297H0.8362C0.668635 22.1297 0.5 21.9835 0.5 21.7593C0.5 21.5351 0.668635 21.3889 0.8362 21.3889Z" fill="#2B2827" stroke="#32322C"/>
<path d="M32.5008 9.18067L32.5009 9.18064L34.8655 6.71928C34.8655 6.71926 34.8655 6.71925 34.8656 6.71923C34.9954 6.58417 35.1971 6.58414 35.3268 6.7192L35.3269 6.71926C35.4679 6.86605 35.4679 7.11031 35.3269 7.2571L35.3268 7.25713L32.9621 9.7185L32.9621 9.71853C32.8947 9.7887 32.8115 9.82 32.7315 9.82C32.6514 9.82 32.5682 9.78866 32.501 9.71864L32.5008 9.71845C32.3598 9.57172 32.3598 9.32747 32.5008 9.18067Z" fill="#2B2827" stroke="#32322C"/>
<path d="M6.48335 36.2614L6.48333 36.2614C6.34236 36.4081 6.34226 36.6523 6.48332 36.7993L6.48335 36.2614ZM6.48335 36.2614L8.8481 33.7999M6.48335 36.2614L8.8481 33.7999M9.30938 34.3378L9.30939 34.3378C9.45037 34.1911 9.45046 33.9468 9.30939 33.7999L9.30938 34.3378ZM9.30938 34.3378L6.94464 36.7993C6.94463 36.7993 6.94462 36.7993 6.94461 36.7993C6.87725 36.8694 6.79403 36.9007 6.71397 36.9007C6.63394 36.9007 6.55074 36.8694 6.48338 36.7993L9.30938 34.3378ZM8.8481 33.7999C8.84811 33.7999 8.84811 33.7999 8.84812 33.7999M8.8481 33.7999L8.84812 33.7999M8.84812 33.7999C8.97831 33.6644 9.17913 33.6644 9.30934 33.7999L8.84812 33.7999Z" fill="#2B2827" stroke="#32322C"/>
<path d="M32.5009 33.7999L32.5009 33.7999C32.631 33.6644 32.8318 33.6644 32.9621 33.7999C32.9621 33.7999 32.9622 33.7999 32.9622 33.7999L35.3268 36.2614L35.3269 36.2614C35.4679 36.4082 35.468 36.6524 35.3268 36.7993L35.3268 36.7993C35.2596 36.8693 35.1763 36.9007 35.0962 36.9007C35.0162 36.9007 34.933 36.8694 34.8656 36.7993C34.8655 36.7993 34.8655 36.7993 34.8655 36.7992L32.5009 34.3378L32.5008 34.3378C32.3598 34.191 32.3597 33.9468 32.5009 33.7999Z" fill="#2B2827" stroke="#32322C"/>
<path d="M8.84819 9.71858L8.84811 9.71849L6.48334 7.25713C6.48334 7.25713 6.48334 7.25713 6.48334 7.25713C6.3423 7.11033 6.34231 6.86604 6.48334 6.71925L6.48335 6.71924C6.61354 6.58372 6.8144 6.58372 6.94461 6.71925L9.30938 9.18064C9.30938 9.18064 9.30938 9.18064 9.30938 9.18064C9.45043 9.32746 9.45039 9.57174 9.3094 9.71847L9.30931 9.71858C9.24197 9.78869 9.15879 9.82 9.07875 9.82C8.9987 9.82 8.91552 9.78869 8.84819 9.71858Z" fill="#2B2827" stroke="#32322C"/>
<path d="M11.3705 21.7592C11.3705 16.2571 15.6665 11.8148 20.9048 11.8148C21.0724 11.8148 21.241 11.9609 21.241 12.1852C21.241 12.4094 21.0725 12.5555 20.9048 12.5555C15.9992 12.5555 12.0429 16.7029 12.0429 21.7592C12.0429 21.9835 11.8743 22.1296 11.7067 22.1296C11.539 22.1296 11.3705 21.9835 11.3705 21.7592Z" fill="#2B2827" stroke="#32322C"/>
<path d="M64.0449 36H57.6641L51.0195 10.6875H58.1387L62.3398 28.6523L66.0664 10.6875H72.4648L76.543 29.1094L81.1309 10.6875H85.4375L78.0723 36H71.6738L68.1055 19.8281L64.0449 36ZM91.9238 26.3672C92.6504 26.5312 93.377 26.6602 94.1035 26.7539C94.8301 26.8477 95.5625 26.8945 96.3008 26.8945C97.0742 26.8945 97.7891 26.8242 98.4453 26.6836C99.1133 26.5312 99.6875 26.2852 100.168 25.9453C100.66 25.5938 101.047 25.1309 101.328 24.5566C101.609 23.9824 101.75 23.2676 101.75 22.4121C101.75 21.7207 101.656 21.0879 101.469 20.5137C101.281 19.9395 101 19.4473 100.625 19.0371C100.262 18.627 99.8105 18.3105 99.2715 18.0879C98.7324 17.8535 98.1055 17.7363 97.3906 17.7363C96.7227 17.7363 96.1191 17.8594 95.5801 18.1055C95.0527 18.3516 94.584 18.6855 94.1738 19.1074C93.7754 19.5176 93.4297 19.998 93.1367 20.5488C92.8555 21.0996 92.6211 21.6738 92.4336 22.2715C92.2461 22.8691 92.1113 23.4727 92.0293 24.082C91.9473 24.6914 91.9062 25.2656 91.9062 25.8047C91.9062 25.8984 91.9062 25.9922 91.9062 26.0859C91.9062 26.1797 91.9121 26.2734 91.9238 26.3672ZM106.566 22.3594C106.566 23.1914 106.432 23.9355 106.162 24.5918C105.893 25.2363 105.523 25.8047 105.055 26.2969C104.598 26.7891 104.064 27.2051 103.455 27.5449C102.846 27.8848 102.195 28.166 101.504 28.3887C100.812 28.5996 100.098 28.752 99.3594 28.8457C98.6328 28.9395 97.9238 28.9863 97.2324 28.9863C96.3535 28.9863 95.4863 28.9277 94.6309 28.8105C93.7754 28.6816 92.9316 28.4824 92.0996 28.2129C92.2285 28.9863 92.4336 29.7246 92.7148 30.4277C92.9961 31.1191 93.3711 31.7285 93.8398 32.2559C94.3086 32.7715 94.8828 33.1816 95.5625 33.4863C96.2539 33.791 97.0684 33.9434 98.0059 33.9434C98.627 33.9434 99.2188 33.8496 99.7812 33.6621C100.344 33.4746 100.859 33.2109 101.328 32.8711C101.797 32.5312 102.207 32.127 102.559 31.6582C102.922 31.1895 103.215 30.668 103.438 30.0938L106.004 31.043C105.617 31.9688 105.084 32.7715 104.404 33.4512C103.736 34.1191 102.975 34.6758 102.119 35.1211C101.275 35.5547 100.373 35.877 99.4121 36.0879C98.4629 36.2988 97.5195 36.4043 96.582 36.4043C95.0352 36.4043 93.6055 36.1465 92.293 35.6309C90.9805 35.1035 89.8496 34.3711 88.9004 33.4336C87.9512 32.4961 87.207 31.377 86.668 30.0762C86.1289 28.7754 85.8594 27.3516 85.8594 25.8047C85.8594 24.2578 86.1289 22.834 86.668 21.5332C87.207 20.2324 87.9512 19.1133 88.9004 18.1758C89.8496 17.2383 90.9805 16.5117 92.293 15.9961C93.6055 15.4688 95.0352 15.2051 96.582 15.2051C97.332 15.2051 98.0996 15.2578 98.8848 15.3633C99.6699 15.4688 100.432 15.6387 101.17 15.873C101.908 16.0957 102.605 16.3887 103.262 16.752C103.918 17.1152 104.486 17.5664 104.967 18.1055C105.459 18.6328 105.846 19.248 106.127 19.9512C106.42 20.6543 106.566 21.457 106.566 22.3594ZM144.166 29.127C144.166 29.8418 144.049 30.5098 143.814 31.1309C143.58 31.752 143.258 32.3203 142.848 32.8359C142.438 33.3398 141.957 33.791 141.406 34.1895C140.867 34.5879 140.281 34.9219 139.648 35.1914C139.027 35.4609 138.383 35.666 137.715 35.8066C137.047 35.9355 136.391 36 135.746 36H120.857V10.6875H134.463C135.061 10.6875 135.688 10.7344 136.344 10.8281C137 10.9102 137.639 11.0449 138.26 11.2324C138.893 11.4199 139.49 11.666 140.053 11.9707C140.627 12.2754 141.125 12.6504 141.547 13.0957C141.98 13.5293 142.32 14.0332 142.566 14.6074C142.824 15.1816 142.953 15.8379 142.953 16.5762C142.953 17.2793 142.812 17.918 142.531 18.4922C142.25 19.0664 141.869 19.582 141.389 20.0391C140.92 20.4844 140.375 20.8828 139.754 21.2344C139.145 21.5742 138.5 21.873 137.82 22.1309C138.676 22.3652 139.484 22.6758 140.246 23.0625C141.02 23.4492 141.693 23.9238 142.268 24.4863C142.854 25.0488 143.316 25.7168 143.656 26.4902C143.996 27.252 144.166 28.1309 144.166 29.127ZM135.869 17.1914C135.869 15.7617 135.488 14.7187 134.727 14.0625C133.977 13.4063 132.904 13.0781 131.51 13.0781H127.836V21.2871H130.912C131.545 21.2871 132.16 21.2109 132.758 21.0586C133.355 20.8945 133.883 20.6484 134.34 20.3203C134.809 19.9805 135.178 19.5527 135.447 19.0371C135.729 18.5215 135.869 17.9062 135.869 17.1914ZM137.1 28.6875C137.1 27.9961 137.012 27.3516 136.836 26.7539C136.66 26.1445 136.391 25.623 136.027 25.1895C135.664 24.7441 135.207 24.3984 134.656 24.1523C134.117 23.8945 133.479 23.7656 132.74 23.7656H127.836V33.5391H132.125C132.84 33.5391 133.502 33.4219 134.111 33.1875C134.721 32.9531 135.248 32.625 135.693 32.2031C136.139 31.7812 136.484 31.2715 136.73 30.6738C136.977 30.0762 137.1 29.4141 137.1 28.6875ZM146.75 27.3164C146.75 26.3906 146.826 25.4297 146.979 24.4336C147.143 23.4375 147.371 22.4414 147.664 21.4453C147.969 20.4492 148.332 19.4648 148.754 18.4922C149.176 17.5195 149.65 16.5879 150.178 15.6973H154.52C154.227 16.5762 153.963 17.4961 153.729 18.457C153.506 19.4062 153.312 20.3613 153.148 21.3223C152.996 22.2715 152.873 23.2031 152.779 24.1172C152.697 25.0312 152.656 25.8809 152.656 26.666C152.656 27.123 152.674 27.6152 152.709 28.1426C152.756 28.6582 152.832 29.1797 152.938 29.707C153.043 30.2227 153.189 30.7207 153.377 31.2012C153.576 31.6816 153.828 32.1094 154.133 32.4844C154.438 32.8477 154.807 33.1406 155.24 33.3633C155.686 33.5742 156.207 33.6797 156.805 33.6797C157.391 33.6797 157.912 33.5508 158.369 33.293C158.838 33.0234 159.248 32.6777 159.6 32.2559C159.951 31.8223 160.25 31.3301 160.496 30.7793C160.742 30.2285 160.941 29.666 161.094 29.0918C161.258 28.5059 161.375 27.9375 161.445 27.3867C161.527 26.8242 161.568 26.3203 161.568 25.875V15.6973H167.51V36H165.225L162.5 31.2715C162.16 32.0566 161.744 32.7715 161.252 33.416C160.771 34.0488 160.221 34.5938 159.6 35.0508C158.979 35.5078 158.287 35.8594 157.525 36.1055C156.775 36.3516 155.961 36.4746 155.082 36.4746C153.676 36.4746 152.451 36.2461 151.408 35.7891C150.365 35.332 149.498 34.6992 148.807 33.8906C148.115 33.082 147.6 32.1211 147.26 31.0078C146.92 29.8828 146.75 28.6523 146.75 27.3164ZM178.707 10.793C178.707 11.2383 178.619 11.6602 178.443 12.0586C178.279 12.457 178.051 12.8027 177.758 13.0957C177.465 13.3887 177.119 13.623 176.721 13.7988C176.322 13.9629 175.9 14.0449 175.455 14.0449C175.01 14.0449 174.588 13.9629 174.189 13.7988C173.803 13.623 173.463 13.3887 173.17 13.0957C172.877 12.8027 172.643 12.457 172.467 12.0586C172.303 11.6602 172.221 11.2383 172.221 10.793C172.221 10.3477 172.303 9.93164 172.467 9.54492C172.643 9.14648 172.877 8.80078 173.17 8.50781C173.463 8.21484 173.803 7.98633 174.189 7.82227C174.588 7.64648 175.01 7.55859 175.455 7.55859C175.9 7.55859 176.322 7.64648 176.721 7.82227C177.119 7.98633 177.465 8.21484 177.758 8.50781C178.051 8.80078 178.279 9.14648 178.443 9.54492C178.619 9.93164 178.707 10.3477 178.707 10.793ZM178.443 36H172.484V15.7148H178.443V36ZM189.377 36H183.436V6.3457H185.721L189.377 12.5156V36ZM214.795 36H212.51L209.873 31.5879C209.615 32.3262 209.258 32.9941 208.801 33.5918C208.355 34.1895 207.834 34.7051 207.236 35.1387C206.65 35.5605 206 35.8887 205.285 36.123C204.582 36.3574 203.838 36.4746 203.053 36.4746C201.506 36.4746 200.123 36.1992 198.904 35.6484C197.686 35.0977 196.654 34.3477 195.811 33.3984C194.967 32.4375 194.322 31.3125 193.877 30.0234C193.432 28.7344 193.209 27.3516 193.209 25.875C193.209 24.3984 193.432 23.0156 193.877 21.7266C194.322 20.4375 194.967 19.3184 195.811 18.3691C196.654 17.4199 197.686 16.6699 198.904 16.1191C200.123 15.5684 201.506 15.293 203.053 15.293C204.236 15.293 205.32 15.5215 206.305 15.9785C207.301 16.4355 208.15 17.1504 208.854 18.123V8.22656H214.795V36ZM208.818 25.875C208.818 25.4062 208.783 24.8906 208.713 24.3281C208.643 23.7656 208.531 23.1973 208.379 22.623C208.227 22.0488 208.027 21.4922 207.781 20.9531C207.535 20.4141 207.23 19.9336 206.867 19.5117C206.516 19.0898 206.1 18.7559 205.619 18.5098C205.15 18.252 204.611 18.123 204.002 18.123C203.334 18.123 202.754 18.2461 202.262 18.4922C201.77 18.7266 201.348 19.0488 200.996 19.459C200.645 19.8574 200.352 20.3203 200.117 20.8477C199.895 21.375 199.719 21.9258 199.59 22.5C199.461 23.0742 199.367 23.6543 199.309 24.2402C199.262 24.8145 199.238 25.3594 199.238 25.875C199.238 26.3906 199.262 26.9414 199.309 27.5273C199.367 28.1016 199.461 28.6758 199.59 29.25C199.719 29.8242 199.895 30.3809 200.117 30.9199C200.352 31.4473 200.645 31.916 200.996 32.3262C201.348 32.7246 201.77 33.0469 202.262 33.293C202.754 33.5273 203.334 33.6445 204.002 33.6445C204.67 33.6445 205.256 33.5273 205.76 33.293C206.264 33.0586 206.691 32.7422 207.043 32.3438C207.406 31.9336 207.699 31.4707 207.922 30.9551C208.156 30.4277 208.338 29.877 208.467 29.3027C208.596 28.7168 208.684 28.1309 208.73 27.5449C208.789 26.959 208.818 26.4023 208.818 25.875Z" fill="#2B2827"/>
</svg>
