<svg width="34" height="38" viewBox="0 0 34 38" fill="none" xmlns="http://www.w3.org/2000/svg">
<g clip-path="url(#clip0)">
<path d="M16.9231 5.62964C10.5776 5.62964 5.41537 10.9961 5.41537 17.5926C5.41537 22.5973 8.38772 27.0307 12.8616 28.7815V35.1852C12.8616 35.5743 13.1642 35.8889 13.5385 35.8889H14.2154V37.2963C14.2154 37.6854 14.518 38 14.8923 38H18.9539C19.3282 38 19.6308 37.6854 19.6308 37.2963V35.8889H20.3077C20.682 35.8889 20.9846 35.5743 20.9846 35.1852V28.7815C25.4584 27.0307 28.4308 22.5973 28.4308 17.5926C28.4308 10.9961 23.2685 5.62964 16.9231 5.62964ZM18.9539 34.4814C18.5795 34.4814 18.2769 34.796 18.2769 35.1852V36.5926H15.5692V35.1852C15.5692 34.796 15.2666 34.4814 14.8923 34.4814H14.2154V30.963H19.6308V34.4814H18.9539ZM20.0965 27.6148C19.8183 27.7098 19.6308 27.98 19.6308 28.2832V29.5556H14.2154V28.2832C14.2154 27.9792 14.0278 27.7098 13.7497 27.6148C9.57505 26.1877 6.76921 22.1597 6.76921 17.5926C6.76921 11.7722 11.3243 7.03704 16.9231 7.03704C22.5219 7.03704 27.077 11.7722 27.077 17.5926C27.077 22.1597 24.2711 26.1877 20.0965 27.6148Z" fill="#282256"/>
<path d="M16.9229 4.22222C17.2973 4.22222 17.5999 3.90767 17.5999 3.51852V0.703703C17.5999 0.314556 17.2973 0 16.9229 0C16.5486 0 16.246 0.314556 16.246 0.703703V3.51852C16.246 3.90767 16.5486 4.22222 16.9229 4.22222Z" fill="#DC6060"/>
<path d="M33.1692 16.8889H30.4615C30.0872 16.8889 29.7846 17.2035 29.7846 17.5926C29.7846 17.9818 30.0872 18.2964 30.4615 18.2964H33.1692C33.5435 18.2964 33.8461 17.9818 33.8461 17.5926C33.8461 17.2035 33.5435 16.8889 33.1692 16.8889Z" fill="#DC6060"/>
<path d="M3.38462 16.8889H0.676924C0.302585 16.8889 0 17.2035 0 17.5926C0 17.9818 0.302585 18.2964 0.676924 18.2964H3.38462C3.75896 18.2964 4.06154 17.9818 4.06154 17.5926C4.06154 17.2035 3.75896 16.8889 3.38462 16.8889Z" fill="#DC6060"/>
<path d="M27.9326 5.1525L26.0183 7.14258C25.7536 7.41772 25.7536 7.86247 26.0183 8.13758C26.1503 8.27486 26.3236 8.34383 26.4969 8.34383C26.6702 8.34383 26.8435 8.27486 26.9755 8.13758L28.8898 6.14754C29.1545 5.87239 29.1545 5.42765 28.8898 5.1525C28.6252 4.87735 28.1967 4.87806 27.9326 5.1525Z" fill="#DC6060"/>
<path d="M6.87088 27.0475L4.95654 29.0377C4.69186 29.3128 4.69186 29.7575 4.95654 30.0327C5.08854 30.1699 5.26183 30.2389 5.43512 30.2389C5.60841 30.2389 5.78171 30.1699 5.91371 30.0327L7.82805 28.0425C8.09272 27.7674 8.09272 27.3227 7.82805 27.0475C7.56337 26.7724 7.13556 26.7724 6.87088 27.0475Z" fill="#DC6060"/>
<path d="M26.9755 27.0475C26.7108 26.7724 26.283 26.7724 26.0183 27.0475C25.7536 27.3227 25.7536 27.7674 26.0183 28.0425L27.9326 30.0327C28.0647 30.1699 28.238 30.2389 28.4112 30.2389C28.5845 30.2389 28.7578 30.1699 28.8898 30.0327C29.1545 29.7575 29.1545 29.3128 28.8898 29.0377L26.9755 27.0475Z" fill="#DC6060"/>
<path d="M6.87088 8.13758C7.00288 8.27486 7.17617 8.34383 7.34947 8.34383C7.52275 8.34383 7.69605 8.27486 7.82805 8.13758C8.09272 7.86247 8.09272 7.41773 7.82805 7.14258L5.91371 5.15251C5.64903 4.87736 5.22121 4.87736 4.95654 5.15251C4.69186 5.42765 4.69186 5.87239 4.95654 6.14754L6.87088 8.13758Z" fill="#DC6060"/>
<path d="M16.9229 9.14814C12.4438 9.14814 8.79993 12.9362 8.79993 17.5925C8.79993 17.9818 9.10245 18.2963 9.47685 18.2963C9.85118 18.2963 10.1538 17.9818 10.1538 17.5925C10.1538 13.7123 13.1904 10.5555 16.9229 10.5555C17.2973 10.5555 17.5999 10.241 17.5999 9.85187C17.5999 9.46273 17.2973 9.14814 16.9229 9.14814Z" fill="#DC6060"/>
</g>
<defs>
<clipPath id="clip0">
<rect width="34" height="38" fill="white"/>
</clipPath>
</defs>
</svg>
