<svg width="215" height="47" viewBox="0 0 215 47" fill="none" xmlns="http://www.w3.org/2000/svg">
<g filter="url(#filter0_i)">
<path d="M64.0449 37H57.6641L51.0195 11.6875H58.1387L62.3398 29.6523L66.0664 11.6875H72.4648L76.543 30.1094L81.1309 11.6875H85.4375L78.0723 37H71.6738L68.1055 20.8281L64.0449 37ZM91.9238 27.3672C92.6504 27.5312 93.377 27.6602 94.1035 27.7539C94.8301 27.8477 95.5625 27.8945 96.3008 27.8945C97.0742 27.8945 97.7891 27.8242 98.4453 27.6836C99.1133 27.5312 99.6875 27.2852 100.168 26.9453C100.66 26.5938 101.047 26.1309 101.328 25.5566C101.609 24.9824 101.75 24.2676 101.75 23.4121C101.75 22.7207 101.656 22.0879 101.469 21.5137C101.281 20.9395 101 20.4473 100.625 20.0371C100.262 19.627 99.8105 19.3105 99.2715 19.0879C98.7324 18.8535 98.1055 18.7363 97.3906 18.7363C96.7227 18.7363 96.1191 18.8594 95.5801 19.1055C95.0527 19.3516 94.584 19.6855 94.1738 20.1074C93.7754 20.5176 93.4297 20.998 93.1367 21.5488C92.8555 22.0996 92.6211 22.6738 92.4336 23.2715C92.2461 23.8691 92.1113 24.4727 92.0293 25.082C91.9473 25.6914 91.9062 26.2656 91.9062 26.8047C91.9062 26.8984 91.9062 26.9922 91.9062 27.0859C91.9062 27.1797 91.9121 27.2734 91.9238 27.3672ZM106.566 23.3594C106.566 24.1914 106.432 24.9355 106.162 25.5918C105.893 26.2363 105.523 26.8047 105.055 27.2969C104.598 27.7891 104.064 28.2051 103.455 28.5449C102.846 28.8848 102.195 29.166 101.504 29.3887C100.812 29.5996 100.098 29.752 99.3594 29.8457C98.6328 29.9395 97.9238 29.9863 97.2324 29.9863C96.3535 29.9863 95.4863 29.9277 94.6309 29.8105C93.7754 29.6816 92.9316 29.4824 92.0996 29.2129C92.2285 29.9863 92.4336 30.7246 92.7148 31.4277C92.9961 32.1191 93.3711 32.7285 93.8398 33.2559C94.3086 33.7715 94.8828 34.1816 95.5625 34.4863C96.2539 34.791 97.0684 34.9434 98.0059 34.9434C98.627 34.9434 99.2188 34.8496 99.7812 34.6621C100.344 34.4746 100.859 34.2109 101.328 33.8711C101.797 33.5312 102.207 33.127 102.559 32.6582C102.922 32.1895 103.215 31.668 103.438 31.0938L106.004 32.043C105.617 32.9688 105.084 33.7715 104.404 34.4512C103.736 35.1191 102.975 35.6758 102.119 36.1211C101.275 36.5547 100.373 36.877 99.4121 37.0879C98.4629 37.2988 97.5195 37.4043 96.582 37.4043C95.0352 37.4043 93.6055 37.1465 92.293 36.6309C90.9805 36.1035 89.8496 35.3711 88.9004 34.4336C87.9512 33.4961 87.207 32.377 86.668 31.0762C86.1289 29.7754 85.8594 28.3516 85.8594 26.8047C85.8594 25.2578 86.1289 23.834 86.668 22.5332C87.207 21.2324 87.9512 20.1133 88.9004 19.1758C89.8496 18.2383 90.9805 17.5117 92.293 16.9961C93.6055 16.4688 95.0352 16.2051 96.582 16.2051C97.332 16.2051 98.0996 16.2578 98.8848 16.3633C99.6699 16.4688 100.432 16.6387 101.17 16.873C101.908 17.0957 102.605 17.3887 103.262 17.752C103.918 18.1152 104.486 18.5664 104.967 19.1055C105.459 19.6328 105.846 20.248 106.127 20.9512C106.42 21.6543 106.566 22.457 106.566 23.3594ZM144.166 30.127C144.166 30.8418 144.049 31.5098 143.814 32.1309C143.58 32.752 143.258 33.3203 142.848 33.8359C142.438 34.3398 141.957 34.791 141.406 35.1895C140.867 35.5879 140.281 35.9219 139.648 36.1914C139.027 36.4609 138.383 36.666 137.715 36.8066C137.047 36.9355 136.391 37 135.746 37H120.857V11.6875H134.463C135.061 11.6875 135.688 11.7344 136.344 11.8281C137 11.9102 137.639 12.0449 138.26 12.2324C138.893 12.4199 139.49 12.666 140.053 12.9707C140.627 13.2754 141.125 13.6504 141.547 14.0957C141.98 14.5293 142.32 15.0332 142.566 15.6074C142.824 16.1816 142.953 16.8379 142.953 17.5762C142.953 18.2793 142.812 18.918 142.531 19.4922C142.25 20.0664 141.869 20.582 141.389 21.0391C140.92 21.4844 140.375 21.8828 139.754 22.2344C139.145 22.5742 138.5 22.873 137.82 23.1309C138.676 23.3652 139.484 23.6758 140.246 24.0625C141.02 24.4492 141.693 24.9238 142.268 25.4863C142.854 26.0488 143.316 26.7168 143.656 27.4902C143.996 28.252 144.166 29.1309 144.166 30.127ZM135.869 18.1914C135.869 16.7617 135.488 15.7187 134.727 15.0625C133.977 14.4063 132.904 14.0781 131.51 14.0781H127.836V22.2871H130.912C131.545 22.2871 132.16 22.2109 132.758 22.0586C133.355 21.8945 133.883 21.6484 134.34 21.3203C134.809 20.9805 135.178 20.5527 135.447 20.0371C135.729 19.5215 135.869 18.9062 135.869 18.1914ZM137.1 29.6875C137.1 28.9961 137.012 28.3516 136.836 27.7539C136.66 27.1445 136.391 26.623 136.027 26.1895C135.664 25.7441 135.207 25.3984 134.656 25.1523C134.117 24.8945 133.479 24.7656 132.74 24.7656H127.836V34.5391H132.125C132.84 34.5391 133.502 34.4219 134.111 34.1875C134.721 33.9531 135.248 33.625 135.693 33.2031C136.139 32.7812 136.484 32.2715 136.73 31.6738C136.977 31.0762 137.1 30.4141 137.1 29.6875ZM146.75 28.3164C146.75 27.3906 146.826 26.4297 146.979 25.4336C147.143 24.4375 147.371 23.4414 147.664 22.4453C147.969 21.4492 148.332 20.4648 148.754 19.4922C149.176 18.5195 149.65 17.5879 150.178 16.6973H154.52C154.227 17.5762 153.963 18.4961 153.729 19.457C153.506 20.4062 153.312 21.3613 153.148 22.3223C152.996 23.2715 152.873 24.2031 152.779 25.1172C152.697 26.0312 152.656 26.8809 152.656 27.666C152.656 28.123 152.674 28.6152 152.709 29.1426C152.756 29.6582 152.832 30.1797 152.938 30.707C153.043 31.2227 153.189 31.7207 153.377 32.2012C153.576 32.6816 153.828 33.1094 154.133 33.4844C154.438 33.8477 154.807 34.1406 155.24 34.3633C155.686 34.5742 156.207 34.6797 156.805 34.6797C157.391 34.6797 157.912 34.5508 158.369 34.293C158.838 34.0234 159.248 33.6777 159.6 33.2559C159.951 32.8223 160.25 32.3301 160.496 31.7793C160.742 31.2285 160.941 30.666 161.094 30.0918C161.258 29.5059 161.375 28.9375 161.445 28.3867C161.527 27.8242 161.568 27.3203 161.568 26.875V16.6973H167.51V37H165.225L162.5 32.2715C162.16 33.0566 161.744 33.7715 161.252 34.416C160.771 35.0488 160.221 35.5938 159.6 36.0508C158.979 36.5078 158.287 36.8594 157.525 37.1055C156.775 37.3516 155.961 37.4746 155.082 37.4746C153.676 37.4746 152.451 37.2461 151.408 36.7891C150.365 36.332 149.498 35.6992 148.807 34.8906C148.115 34.082 147.6 33.1211 147.26 32.0078C146.92 30.8828 146.75 29.6523 146.75 28.3164ZM178.707 11.793C178.707 12.2383 178.619 12.6602 178.443 13.0586C178.279 13.457 178.051 13.8027 177.758 14.0957C177.465 14.3887 177.119 14.623 176.721 14.7988C176.322 14.9629 175.9 15.0449 175.455 15.0449C175.01 15.0449 174.588 14.9629 174.189 14.7988C173.803 14.623 173.463 14.3887 173.17 14.0957C172.877 13.8027 172.643 13.457 172.467 13.0586C172.303 12.6602 172.221 12.2383 172.221 11.793C172.221 11.3477 172.303 10.9316 172.467 10.5449C172.643 10.1465 172.877 9.80078 173.17 9.50781C173.463 9.21484 173.803 8.98633 174.189 8.82227C174.588 8.64648 175.01 8.55859 175.455 8.55859C175.9 8.55859 176.322 8.64648 176.721 8.82227C177.119 8.98633 177.465 9.21484 177.758 9.50781C178.051 9.80078 178.279 10.1465 178.443 10.5449C178.619 10.9316 178.707 11.3477 178.707 11.793ZM178.443 37H172.484V16.7148H178.443V37ZM189.377 37H183.436V7.3457H185.721L189.377 13.5156V37ZM214.795 37H212.51L209.873 32.5879C209.615 33.3262 209.258 33.9941 208.801 34.5918C208.355 35.1895 207.834 35.7051 207.236 36.1387C206.65 36.5605 206 36.8887 205.285 37.123C204.582 37.3574 203.838 37.4746 203.053 37.4746C201.506 37.4746 200.123 37.1992 198.904 36.6484C197.686 36.0977 196.654 35.3477 195.811 34.3984C194.967 33.4375 194.322 32.3125 193.877 31.0234C193.432 29.7344 193.209 28.3516 193.209 26.875C193.209 25.3984 193.432 24.0156 193.877 22.7266C194.322 21.4375 194.967 20.3184 195.811 19.3691C196.654 18.4199 197.686 17.6699 198.904 17.1191C200.123 16.5684 201.506 16.293 203.053 16.293C204.236 16.293 205.32 16.5215 206.305 16.9785C207.301 17.4355 208.15 18.1504 208.854 19.123V9.22656H214.795V37ZM208.818 26.875C208.818 26.4062 208.783 25.8906 208.713 25.3281C208.643 24.7656 208.531 24.1973 208.379 23.623C208.227 23.0488 208.027 22.4922 207.781 21.9531C207.535 21.4141 207.23 20.9336 206.867 20.5117C206.516 20.0898 206.1 19.7559 205.619 19.5098C205.15 19.252 204.611 19.123 204.002 19.123C203.334 19.123 202.754 19.2461 202.262 19.4922C201.77 19.7266 201.348 20.0488 200.996 20.459C200.645 20.8574 200.352 21.3203 200.117 21.8477C199.895 22.375 199.719 22.9258 199.59 23.5C199.461 24.0742 199.367 24.6543 199.309 25.2402C199.262 25.8145 199.238 26.3594 199.238 26.875C199.238 27.3906 199.262 27.9414 199.309 28.5273C199.367 29.1016 199.461 29.6758 199.59 30.25C199.719 30.8242 199.895 31.3809 200.117 31.9199C200.352 32.4473 200.645 32.916 200.996 33.3262C201.348 33.7246 201.77 34.0469 202.262 34.293C202.754 34.5273 203.334 34.6445 204.002 34.6445C204.67 34.6445 205.256 34.5273 205.76 34.293C206.264 34.0586 206.691 33.7422 207.043 33.3438C207.406 32.9336 207.699 32.4707 207.922 31.9551C208.156 31.4277 208.338 30.877 208.467 30.3027C208.596 29.7168 208.684 29.1309 208.73 28.5449C208.789 27.959 208.818 27.4023 208.818 26.875Z" fill="#FFF8F8"/>
</g>
<path d="M20.905 6.96297C13.0664 6.96297 6.68958 13.6004 6.68958 21.7593C6.68958 27.9493 10.3613 33.4327 15.8878 35.5982V43.5185C15.8878 43.9998 16.2616 44.3889 16.724 44.3889H17.5602V46.1296C17.5602 46.6109 17.934 47 18.3964 47H23.4136C23.876 47 24.2498 46.6109 24.2498 46.1296V44.3889H25.086C25.5484 44.3889 25.9222 43.9998 25.9222 43.5185V35.5982C31.4486 33.4327 35.1204 27.9493 35.1204 21.7593C35.1204 13.6004 28.7435 6.96297 20.905 6.96297ZM23.4136 42.6481C22.9511 42.6481 22.5774 43.0372 22.5774 43.5185V45.2593H19.2326V43.5185C19.2326 43.0372 18.8588 42.6481 18.3964 42.6481H17.5602V38.2963H24.2498V42.6481H23.4136ZM24.8251 34.1551C24.4814 34.2726 24.2498 34.6068 24.2498 34.9819V36.5556H17.5602V34.9819C17.5602 34.6059 17.3285 34.2726 16.9849 34.1551C11.828 32.39 8.36197 27.408 8.36197 21.7593C8.36197 14.5604 13.9888 8.70371 20.905 8.70371C27.8212 8.70371 33.448 14.5604 33.448 21.7593C33.448 27.408 29.9819 32.39 24.8251 34.1551Z" fill="white"/>
<path d="M20.9048 5.22222C21.3672 5.22222 21.741 4.83317 21.741 4.35185V0.87037C21.741 0.389056 21.3672 0 20.9048 0C20.4424 0 20.0686 0.389056 20.0686 0.87037V4.35185C20.0686 4.83317 20.4424 5.22222 20.9048 5.22222Z" fill="white"/>
<path d="M40.9737 20.8889H37.6289C37.1665 20.8889 36.7927 21.278 36.7927 21.7593C36.7927 22.2406 37.1665 22.6297 37.6289 22.6297H40.9737C41.4361 22.6297 41.8099 22.2406 41.8099 21.7593C41.8099 21.278 41.4361 20.8889 40.9737 20.8889Z" fill="white"/>
<path d="M4.181 20.8889H0.8362C0.373781 20.8889 0 21.278 0 21.7593C0 22.2406 0.373781 22.6297 0.8362 22.6297H4.181C4.64342 22.6297 5.0172 22.2406 5.0172 21.7593C5.0172 21.278 4.64342 20.8889 4.181 20.8889Z" fill="white"/>
<path d="M34.505 6.37283L32.1403 8.83424C31.8133 9.17455 31.8133 9.72463 32.1403 10.0649C32.3033 10.2347 32.5174 10.32 32.7315 10.32C32.9455 10.32 33.1596 10.2347 33.3227 10.0649L35.6874 7.60353C36.0144 7.26322 36.0144 6.71314 35.6874 6.37283C35.3605 6.03251 34.8312 6.03339 34.505 6.37283Z" fill="white"/>
<path d="M8.48755 33.4535L6.12278 35.915C5.79582 36.2553 5.79582 36.8053 6.12278 37.1457C6.28584 37.3154 6.49991 37.4007 6.71397 37.4007C6.92804 37.4007 7.14211 37.3154 7.30517 37.1457L9.66994 34.6842C9.99689 34.3439 9.99689 33.7939 9.66994 33.4535C9.34298 33.1132 8.81451 33.1132 8.48755 33.4535Z" fill="white"/>
<path d="M33.3227 33.4535C32.9957 33.1132 32.4672 33.1132 32.1403 33.4535C31.8133 33.7939 31.8133 34.3439 32.1403 34.6842L34.505 37.1457C34.6681 37.3154 34.8822 37.4007 35.0962 37.4007C35.3103 37.4007 35.5244 37.3154 35.6874 37.1457C36.0144 36.8053 36.0144 36.2553 35.6874 35.915L33.3227 33.4535Z" fill="white"/>
<path d="M8.48755 10.0649C8.65061 10.2347 8.86468 10.32 9.07875 10.32C9.29281 10.32 9.50688 10.2347 9.66994 10.0649C9.99689 9.72463 9.99689 9.17456 9.66994 8.83424L7.30517 6.37284C6.97821 6.03252 6.44973 6.03252 6.12278 6.37284C5.79582 6.71315 5.79582 7.26322 6.12278 7.60354L8.48755 10.0649Z" fill="white"/>
<path d="M20.9048 11.3148C15.3717 11.3148 10.8705 16 10.8705 21.7592C10.8705 22.2406 11.2442 22.6296 11.7067 22.6296C12.1691 22.6296 12.5429 22.2406 12.5429 21.7592C12.5429 16.96 16.294 13.0555 20.9048 13.0555C21.3673 13.0555 21.741 12.6665 21.741 12.1852C21.741 11.7039 21.3673 11.3148 20.9048 11.3148Z" fill="#FFF500"/>
<defs>
<filter id="filter0_i" x="51.0195" y="7.3457" width="167.775" height="34.1289" filterUnits="userSpaceOnUse" color-interpolation-filters="sRGB">
<feFlood flood-opacity="0" result="BackgroundImageFix"/>
<feBlend mode="normal" in="SourceGraphic" in2="BackgroundImageFix" result="shape"/>
<feColorMatrix in="SourceAlpha" type="matrix" values="0 0 0 0 0 0 0 0 0 0 0 0 0 0 0 0 0 0 127 0" result="hardAlpha"/>
<feOffset dx="6" dy="4"/>
<feGaussianBlur stdDeviation="2"/>
<feComposite in2="hardAlpha" operator="arithmetic" k2="-1" k3="1"/>
<feColorMatrix type="matrix" values="0 0 0 0 0 0 0 0 0 0 0 0 0 0 0 0 0 0 0.25 0"/>
<feBlend mode="overlay" in2="shape" result="effect1_innerShadow"/>
</filter>
</defs>
</svg>
