<svg width="42" height="47" viewBox="0 0 42 47" fill="none" xmlns="http://www.w3.org/2000/svg">
<path d="M20.905 6.96297C13.0664 6.96297 6.68958 13.6004 6.68958 21.7593C6.68958 27.9493 10.3613 33.4327 15.8878 35.5982V43.5185C15.8878 43.9998 16.2616 44.3889 16.724 44.3889H17.5602V46.1296C17.5602 46.6109 17.934 47 18.3964 47H23.4136C23.876 47 24.2498 46.6109 24.2498 46.1296V44.3889H25.086C25.5484 44.3889 25.9222 43.9998 25.9222 43.5185V35.5982C31.4486 33.4327 35.1204 27.9493 35.1204 21.7593C35.1204 13.6004 28.7435 6.96297 20.905 6.96297ZM23.4136 42.6481C22.9511 42.6481 22.5774 43.0372 22.5774 43.5185V45.2593H19.2326V43.5185C19.2326 43.0372 18.8588 42.6481 18.3964 42.6481H17.5602V38.2963H24.2498V42.6481H23.4136ZM24.8251 34.1551C24.4814 34.2726 24.2498 34.6068 24.2498 34.9819V36.5556H17.5602V34.9819C17.5602 34.6059 17.3285 34.2726 16.9849 34.1551C11.828 32.39 8.36197 27.408 8.36197 21.7593C8.36197 14.5604 13.9888 8.70371 20.905 8.70371C27.8212 8.70371 33.448 14.5604 33.448 21.7593C33.448 27.408 29.9819 32.39 24.8251 34.1551Z" fill="#2B2827"/>
<path d="M21.241 4.35185C21.241 4.57608 21.0724 4.72222 20.9048 4.72222C20.7372 4.72222 20.5686 4.57608 20.5686 4.35185V0.87037C20.5686 0.646143 20.7372 0.5 20.9048 0.5C21.0724 0.5 21.241 0.646142 21.241 0.87037V4.35185Z" fill="#FFF500" stroke="#E8DE02"/>
<path d="M37.6289 21.3889H40.9737C41.1413 21.3889 41.3099 21.5351 41.3099 21.7593C41.3099 21.9835 41.1413 22.1297 40.9737 22.1297H37.6289C37.4613 22.1297 37.2927 21.9835 37.2927 21.7593C37.2927 21.5351 37.4613 21.3889 37.6289 21.3889Z" fill="#FFF500" stroke="#E8DE02"/>
<path d="M0.8362 21.3889H4.181C4.34857 21.3889 4.5172 21.5351 4.5172 21.7593C4.5172 21.9835 4.34857 22.1297 4.181 22.1297H0.8362C0.668635 22.1297 0.5 21.9835 0.5 21.7593C0.5 21.5351 0.668635 21.3889 0.8362 21.3889Z" fill="#FFF500" stroke="#E8DE02"/>
<path d="M32.5008 9.18067L32.5009 9.18064L34.8655 6.71928C34.8655 6.71926 34.8655 6.71925 34.8656 6.71923C34.9954 6.58417 35.1971 6.58414 35.3268 6.7192L35.3269 6.71926C35.4679 6.86605 35.4679 7.11031 35.3269 7.2571L35.3268 7.25713L32.9621 9.7185L32.9621 9.71853C32.8947 9.7887 32.8115 9.82 32.7315 9.82C32.6514 9.82 32.5682 9.78866 32.501 9.71864L32.5008 9.71845C32.3598 9.57172 32.3598 9.32747 32.5008 9.18067Z" fill="#FFF500" stroke="#E8DE02"/>
<path d="M6.48335 36.2614L6.48333 36.2614C6.34236 36.4081 6.34226 36.6523 6.48332 36.7993L6.48335 36.2614ZM6.48335 36.2614L8.8481 33.7999M6.48335 36.2614L8.8481 33.7999M9.30938 34.3378L9.30939 34.3378C9.45037 34.1911 9.45046 33.9468 9.30939 33.7999L9.30938 34.3378ZM9.30938 34.3378L6.94464 36.7993C6.94463 36.7993 6.94462 36.7993 6.94461 36.7993C6.87725 36.8694 6.79403 36.9007 6.71397 36.9007C6.63394 36.9007 6.55074 36.8694 6.48338 36.7993L9.30938 34.3378ZM8.8481 33.7999C8.84811 33.7999 8.84811 33.7999 8.84812 33.7999M8.8481 33.7999L8.84812 33.7999M8.84812 33.7999C8.97831 33.6644 9.17913 33.6644 9.30934 33.7999L8.84812 33.7999Z" fill="#FFF500" stroke="#E8DE02"/>
<path d="M32.5009 33.7999L32.5009 33.7999C32.631 33.6644 32.8318 33.6644 32.9621 33.7999C32.9621 33.7999 32.9622 33.7999 32.9622 33.7999L35.3268 36.2614L35.3269 36.2614C35.4679 36.4082 35.468 36.6524 35.3268 36.7993L35.3268 36.7993C35.2596 36.8693 35.1763 36.9007 35.0962 36.9007C35.0162 36.9007 34.933 36.8694 34.8656 36.7993C34.8655 36.7993 34.8655 36.7993 34.8655 36.7992L32.5009 34.3378L32.5008 34.3378C32.3598 34.191 32.3597 33.9468 32.5009 33.7999Z" fill="#FFF500" stroke="#E8DE02"/>
<path d="M8.84819 9.71858L8.84811 9.71849L6.48334 7.25713C6.48334 7.25713 6.48334 7.25713 6.48334 7.25713C6.3423 7.11033 6.34231 6.86604 6.48334 6.71925L6.48335 6.71924C6.61354 6.58372 6.8144 6.58372 6.94461 6.71925L9.30938 9.18064C9.45043 9.32746 9.45039 9.57174 9.3094 9.71847L9.30931 9.71858C9.24197 9.78869 9.15879 9.82 9.07875 9.82C8.9987 9.82 8.91552 9.78869 8.84819 9.71858Z" fill="#FFF500" stroke="#E8DE02"/>
<path d="M11.3705 21.7592C11.3705 16.2571 15.6665 11.8148 20.9048 11.8148C21.0724 11.8148 21.241 11.9609 21.241 12.1852C21.241 12.4094 21.0725 12.5555 20.9048 12.5555C15.9992 12.5555 12.0429 16.7029 12.0429 21.7592C12.0429 21.9835 11.8743 22.1296 11.7067 22.1296C11.539 22.1296 11.3705 21.9835 11.3705 21.7592Z" fill="#FFF500" stroke="#FFF500"/>
</svg>
