<svg width="37" height="40" viewBox="0 0 37 40" fill="none" xmlns="http://www.w3.org/2000/svg">
<path d="M18.4163 5.92593C11.5109 5.92593 5.8932 11.5748 5.8932 18.5186C5.8932 23.7866 9.12781 28.4534 13.9964 30.2963V37.037C13.9964 37.4466 14.3257 37.7778 14.733 37.7778H15.4697V39.2592C15.4697 39.6688 15.799 40 16.2064 40H20.6263C21.0336 40 21.3629 39.6688 21.3629 39.2592V37.7778H22.0996C22.5069 37.7778 22.8362 37.4466 22.8362 37.037V30.2963C27.7047 28.4534 30.9394 23.7866 30.9394 18.5186C30.9394 11.5748 25.3217 5.92593 18.4163 5.92593ZM20.6263 36.2963C20.2188 36.2963 19.8896 36.6274 19.8896 37.037V38.5186H16.943V37.037C16.943 36.6274 16.6137 36.2963 16.2064 36.2963H15.4697V32.5926H21.3629V36.2963H20.6263ZM21.8697 29.0682C21.5669 29.1682 21.3629 29.4526 21.3629 29.7718V31.1111H15.4697V29.7718C15.4697 29.4518 15.2656 29.1682 14.9629 29.0682C10.4199 27.566 7.3665 23.326 7.3665 18.5186C7.3665 12.3918 12.3235 7.40741 18.4163 7.40741C24.5092 7.40741 29.4661 12.3918 29.4661 18.5186C29.4661 23.326 26.4126 27.566 21.8697 29.0682Z" fill="#2B2827"/>
<path d="M18.6528 3.7037C18.6528 3.8398 18.5447 3.94444 18.4161 3.94444C18.2875 3.94444 18.1795 3.8398 18.1795 3.7037V0.74074C18.1795 0.604649 18.2875 0.5 18.4161 0.5C18.5447 0.5 18.6528 0.604648 18.6528 0.74074V3.7037Z" fill="#2B2827" stroke="#32322C"/>
<path d="M33.1493 18.2778H36.0959C36.2245 18.2778 36.3325 18.3824 36.3325 18.5186C36.3325 18.6547 36.2245 18.7593 36.0959 18.7593H33.1493C33.0207 18.7593 32.9126 18.6547 32.9126 18.5186C32.9126 18.3824 33.0207 18.2778 33.1493 18.2778Z" fill="#2B2827" stroke="#32322C"/>
<path d="M0.736652 18.2778H3.68326C3.81186 18.2778 3.91991 18.3824 3.91991 18.5186C3.91991 18.6547 3.81186 18.7593 3.68326 18.7593H0.736652C0.608059 18.7593 0.5 18.6547 0.5 18.5186C0.5 18.3824 0.608059 18.2778 0.736652 18.2778Z" fill="#2B2827" stroke="#32322C"/>
<path d="M28.6686 7.8711L28.6686 7.87107L30.7517 5.77631C30.7518 5.77629 30.7518 5.77627 30.7518 5.77625C30.8441 5.68355 30.9922 5.6836 31.0843 5.77623L31.0844 5.77629C31.1785 5.87087 31.1785 6.02391 31.0844 6.11849L31.0844 6.11852L29.0012 8.2133L29.0011 8.21334C28.9546 8.26018 28.895 8.28298 28.8349 8.28298C28.7746 8.28298 28.7152 8.26015 28.6688 8.21344L28.6686 8.21325C28.5745 8.11872 28.5745 7.9657 28.6686 7.8711Z" fill="#2B2827" stroke="#32322C"/>
<path d="M5.74841 30.9185L5.7484 30.9185C5.65438 31.0131 5.65429 31.1661 5.74838 31.2608L5.74841 30.9185ZM5.74841 30.9185L7.83165 28.8236M5.74841 30.9185L7.83165 28.8236M8.16422 29.1659L8.16423 29.1659C8.25824 29.0714 8.25834 28.9184 8.16423 28.8236L8.16422 29.1659ZM8.16422 29.1659L6.081 31.2608C6.08099 31.2608 6.08098 31.2608 6.08097 31.2608C6.03442 31.3076 5.97487 31.3304 5.91469 31.3304C5.85453 31.3304 5.79499 31.3076 5.74845 31.2608L8.16422 29.1659ZM7.83165 28.8236C7.83165 28.8236 7.83166 28.8236 7.83166 28.8236M7.83165 28.8236L7.83166 28.8236M7.83166 28.8236C7.9242 28.7306 8.07162 28.7306 8.16418 28.8236L7.83166 28.8236Z" fill="#2B2827" stroke="#32322C"/>
<path d="M28.6686 28.8236L28.6686 28.8236C28.7611 28.7306 28.9085 28.7305 29.0012 28.8236C29.0012 28.8236 29.0012 28.8236 29.0012 28.8237L31.0844 30.9185L31.0844 30.9186C31.1784 31.0131 31.1785 31.1661 31.0844 31.2608L31.0843 31.2608C31.0379 31.3075 30.9784 31.3304 30.9181 31.3304C30.858 31.3304 30.7984 31.3076 30.7518 31.2608C30.7518 31.2608 30.7518 31.2608 30.7517 31.2607L28.6686 29.1659L28.6686 29.1659C28.5745 29.0713 28.5745 28.9183 28.6686 28.8236Z" fill="#2B2827" stroke="#32322C"/>
<path d="M7.83174 8.21338L7.83165 8.2133L5.74841 6.11852C5.74841 6.11852 5.7484 6.11852 5.7484 6.11852C5.65433 6.02392 5.65434 5.87086 5.7484 5.77627L5.74841 5.77626C5.84095 5.68321 5.98842 5.6832 6.08097 5.77627L8.16422 7.87107C8.16422 7.87107 8.16422 7.87107 8.16422 7.87108C8.25831 7.96569 8.25827 8.11874 8.16424 8.21328L8.16414 8.21338C8.11763 8.26018 8.05812 8.28298 7.99794 8.28298C7.93776 8.28298 7.87825 8.26018 7.83174 8.21338Z" fill="#2B2827" stroke="#32322C"/>
<path d="M10.0764 18.5185C10.0764 13.8905 13.8205 10.1296 18.4161 10.1296C18.5448 10.1296 18.6528 10.2342 18.6528 10.3704C18.6528 10.5065 18.5448 10.6111 18.4161 10.6111C14.0755 10.6111 10.5497 14.1605 10.5497 18.5185C10.5497 18.6546 10.4417 18.7592 10.313 18.7592C10.1844 18.7592 10.0764 18.6547 10.0764 18.5185Z" fill="#2B2827" stroke="#32322C"/>
</svg>
